<svg width="100" height="25" viewBox="0 0 100 25" fill="none" xmlns="http://www.w3.org/2000/svg">
<path d="M12.5 25C9.18479 25 6.00537 23.683 3.66116 21.3388C1.31696 18.9946 0 15.8152 0 12.5C0 9.18479 1.31696 6.00537 3.66116 3.66117C6.00537 1.31696 9.18479 0 12.5 0C15.8152 0 18.9946 1.31696 21.3388 3.66117C23.683 6.00537 25 9.18479 25 12.5C25 15.8152 23.683 18.9946 21.3388 21.3388C18.9946 23.683 15.8152 25 12.5 25ZM50 25C46.6848 25 43.5054 23.683 41.1612 21.3388C38.817 18.9946 37.5 15.8152 37.5 12.5C37.5 9.18479 38.817 6.00537 41.1612 3.66117C43.5054 1.31696 46.6848 0 50 0C53.3152 0 56.4946 1.31696 58.8388 3.66117C61.183 6.00537 62.5 9.18479 62.5 12.5C62.5 15.8152 61.183 18.9946 58.8388 21.3388C56.4946 23.683 53.3152 25 50 25ZM87.5 25C84.1848 25 81.0054 23.683 78.6612 21.3388C76.317 18.9946 75 15.8152 75 12.5C75 9.18479 76.317 6.00537 78.6612 3.66117C81.0054 1.31696 84.1848 0 87.5 0C90.8152 0 93.9946 1.31696 96.3388 3.66117C98.683 6.00537 100 9.18479 100 12.5C100 15.8152 98.683 18.9946 96.3388 21.3388C93.9946 23.683 90.8152 25 87.5 25Z" fill="white"/>
</svg>
