<svg width="28" height="28" viewBox="0 0 28 28" fill="none" xmlns="http://www.w3.org/2000/svg">
<path d="M18.6679 19.8994L21.0789 17.4874C21.4037 17.1665 21.8145 16.9469 22.2616 16.8551C22.7087 16.7634 23.1729 16.8035 23.5976 16.9705L26.5361 18.1442C26.9654 18.3185 27.3335 18.6161 27.594 18.9993C27.8545 19.3826 27.9958 19.8344 28 20.2978V25.6819C27.9975 25.9971 27.9313 26.3086 27.8053 26.5976C27.6792 26.8866 27.4961 27.1471 27.2668 27.3634C27.0375 27.5797 26.7668 27.7473 26.4711 27.8562C26.1753 27.9651 25.8606 28.013 25.5459 27.997C4.95488 26.7156 0.800086 9.27134 0.0143345 2.59515C-0.0221406 2.2673 0.0111858 1.93544 0.112121 1.6214C0.213056 1.30736 0.379313 1.01826 0.599953 0.773122C0.820593 0.52798 1.09062 0.332351 1.39226 0.199106C1.6939 0.0658614 2.02033 -0.00198042 2.35006 4.4008e-05H7.54894C8.01286 0.00141778 8.46577 0.141609 8.8494 0.402586C9.23304 0.663562 9.52986 1.03339 9.70168 1.4645L10.8749 4.40418C11.0474 4.82744 11.0914 5.29216 11.0015 5.74029C10.9115 6.18843 10.6915 6.6001 10.369 6.92391L7.95796 9.33595C7.95796 9.33595 9.34648 18.7365 18.6679 19.8994Z" fill="white"/>
</svg>
